<?xml version="1.0" encoding="UTF-8"?>
<svg xmlns="http://www.w3.org/2000/svg" xmlns:xlink="http://www.w3.org/1999/xlink" version="1.1" viewBox="0 0 100 100">
  <!-- Generator: Adobe Illustrator 29.2.1, SVG Export Plug-In . SVG Version: 2.1.0 Build 116)  -->
  <defs>
    <style>
      .st0 {
        fill: none;
      }

      .st1 {
        mask: url(#mask);
      }

      .st2 {
        fill: #444;
      }

      .st3, .st4 {
        fill-rule: evenodd;
      }

      .st3, .st5 {
        fill: #fff;
      }

      .st6 {
        fill: #e6e6e6;
      }

      .st4 {
        fill: url(#linear-gradient);
      }

      .st4, .st7 {
        isolation: isolate;
      }

      .st4, .st8 {
        mix-blend-mode: overlay;
        opacity: .2;
      }

      .st9 {
        fill: #d9d9d9;
      }

      .st10 {
        clip-path: url(#clippath);
      }
    </style>
    <clipPath id="clippath">
      <rect class="st0" x="16.1" y="16.1" width="67.9" height="67.9"/>
    </clipPath>
    <mask id="mask" x="16" y="16.1" width="67.9" height="67.9" maskUnits="userSpaceOnUse">
      <g id="mask0">
        <path class="st3" d="M64.2,83.6c1.1.4,2.3.4,3.4-.1l14-6.8c1.5-.7,2.4-2.2,2.4-3.8V27.1c0-1.6-.9-3.1-2.4-3.8l-14-6.8c-1.4-.7-3.1-.5-4.3.4-.2.1-.3.3-.5.4l-26.7,24.5-11.7-8.9c-1.1-.8-2.6-.8-3.6.2l-3.7,3.4c-1.2,1.1-1.2,3.1,0,4.2l10.1,9.3-10.1,9.3c-1.2,1.1-1.2,3.1,0,4.2l3.7,3.4c1,.9,2.5,1,3.6.2l11.7-8.9,26.7,24.5c.4.4.9.7,1.5,1ZM67,34.5l-20.3,15.5,20.3,15.5v-31Z"/>
      </g>
    </mask>
    <linearGradient id="linear-gradient" x1="50" y1="83.8" x2="50" y2="16" gradientTransform="translate(0 99.9) scale(1 -1)" gradientUnits="userSpaceOnUse">
      <stop offset="0" stop-color="#fff"/>
      <stop offset="1" stop-color="#fff" stop-opacity="0"/>
    </linearGradient>
  </defs>
  <g class="st7">
    <g id="Layer_1">
      <rect class="st2" x="5.3" y="5.3" width="89.4" height="89.4" rx="12.3" ry="12.3"/>
      <g class="st10">
        <g class="st1">
          <g>
            <path class="st9" d="M81.5,23.3l-14-6.8c-1.6-.8-3.6-.5-4.8.8L16.9,59.3c-1.2,1.1-1.2,3.1,0,4.2l3.7,3.4c1,.9,2.5,1,3.6.2l55.1-42c1.8-1.4,4.5,0,4.5,2.2v-.2c0-1.6-.9-3.1-2.4-3.8Z"/>
            <path class="st6" d="M81.5,76.7l-14,6.8c-1.6.8-3.6.5-4.8-.8L16.9,40.7c-1.2-1.1-1.2-3.1,0-4.2l3.7-3.4c1-.9,2.5-1,3.6-.2l55.1,42c1.8,1.4,4.5,0,4.5-2.2v.2c0,1.6-.9,3.1-2.4,3.8Z"/>
            <path class="st5" d="M67.5,83.5c-1.6.8-3.6.5-4.8-.8,1.6,1.6,4.2.5,4.2-1.8V19.1c0-2.2-2.7-3.3-4.2-1.8,1.3-1.3,3.2-1.6,4.8-.8l14,6.8c1.5.7,2.4,2.2,2.4,3.8v45.8c0,1.6-.9,3.1-2.4,3.8l-14,6.8Z"/>
            <g class="st8">
              <path class="st4" d="M64.2,83.6c1.1.4,2.3.4,3.4-.1l14-6.8c1.5-.7,2.4-2.2,2.4-3.8V27.1c0-1.6-.9-3.1-2.4-3.8l-14-6.8c-1.4-.7-3.1-.5-4.3.4-.2.1-.3.3-.5.4l-26.7,24.5-11.7-8.9c-1.1-.8-2.6-.8-3.6.2l-3.7,3.4c-1.2,1.1-1.2,3.1,0,4.2l10.1,9.3-10.1,9.3c-1.2,1.1-1.2,3.1,0,4.2l3.7,3.4c1,.9,2.5,1,3.6.2l11.7-8.9,26.7,24.5c.4.4.9.7,1.5,1ZM66.9,34.5l-20.3,15.5,20.3,15.5v-31Z"/>
            </g>
          </g>
        </g>
      </g>
    </g>
  </g>
</svg>